<?xml version="1.0" encoding="iso-8859-1"?>
<!-- Generator: Adobe Illustrator 16.0.0, SVG Export Plug-In . SVG Version: 6.00 Build 0)  -->
<!DOCTYPE svg PUBLIC "-//W3C//DTD SVG 1.1//EN" "http://www.w3.org/Graphics/SVG/1.1/DTD/svg11.dtd">
<svg version="1.1" id="Capa_1" xmlns="http://www.w3.org/2000/svg" xmlns:xlink="http://www.w3.org/1999/xlink" x="0px" y="0px"
	 width="516.375px" height="516.375px" viewBox="0 0 516.375 516.375" style="enable-background:new 0 0 516.375 516.375;"
	 xml:space="preserve">
<g>
	<path d="M411.188,0H124.312c-21.038,0-38.25,17.212-38.25,38.25v19.125H66.938V76.5h19.125v57.375H66.938V153h19.125v57.375H66.938
		V229.5h19.125v57.375H66.938V306h19.125v57.375H66.938V382.5h19.125v57.375H66.938V459h19.125v19.125
		c0,21.037,17.212,38.25,38.25,38.25h286.875c21.037,0,38.25-17.213,38.25-38.25V38.25C449.438,17.212,432.225,0,411.188,0z
		 M277.312,19.125h76.5v183.6l-38.25-38.25l-38.25,38.25V19.125z M430.312,478.125c0,9.562-7.65,19.125-19.125,19.125H124.312
		c-9.562,0-19.125-7.65-19.125-19.125V459h19.125v-19.125h-19.125V382.5h19.125v-19.125h-19.125V306h19.125v-19.125h-19.125V229.5
		h19.125v-19.125h-19.125V153h19.125v-19.125h-19.125V76.5h19.125V57.375h-19.125V38.25c0-9.562,7.65-19.125,19.125-19.125h133.875
		v229.5l57.375-57.375l57.375,57.375v-229.5h38.25c9.562,0,19.125,7.65,19.125,19.125V478.125z"/>
</g>
<g>
</g>
<g>
</g>
<g>
</g>
<g>
</g>
<g>
</g>
<g>
</g>
<g>
</g>
<g>
</g>
<g>
</g>
<g>
</g>
<g>
</g>
<g>
</g>
<g>
</g>
<g>
</g>
<g>
</g>
</svg>
